<svg id="Layer_1" enable-background="new 0 0 256 256" height="512" viewBox="0 0 256 256" width="512" xmlns="http://www.w3.org/2000/svg"><g><g><path d="m202.581 53.857-33.504-33.504h-115.658v204.321h149.162z" fill="#cecece"/><g><path d="m169.077 20.353h-6.5l33.504 33.504v170.817h6.5v-170.817z" fill="#e2e2e2"/></g><g><path d="m53.419 20.353h6.5v204.321h-6.5z" fill="#afafaf"/></g><g fill="#f8af23"><path d="m73.16 122.514h16.126v16.126h-16.126z"/><path d="m103.672 122.514h79.168v16.126h-79.168z"/></g><g><circle cx="128" cy="59.592" fill="#9e9e9e" r="12.722"/><path d="m144.888 100.585h-33.775v-15.944c0-6.808 5.519-12.327 12.327-12.327h9.122c6.808 0 12.327 5.519 12.327 12.327v15.944z" fill="#63bce7"/><g fill="#3f3679"><path d="m27.323 234.147h-18.003c-.829 0-1.5.672-1.5 1.5s.671 1.5 1.5 1.5h18.003c.829 0 1.5-.672 1.5-1.5s-.671-1.5-1.5-1.5z"/><path d="m246.68 234.147h-18.003c-.829 0-1.5.672-1.5 1.5s.671 1.5 1.5 1.5h18.003c.829 0 1.5-.672 1.5-1.5s-.671-1.5-1.5-1.5z"/><path d="m218.479 234.147h-180.958c-.829 0-1.5.672-1.5 1.5s.671 1.5 1.5 1.5h180.959c.829 0 1.5-.672 1.5-1.5s-.672-1.5-1.501-1.5z"/><path d="m9.32 226.174h44.099 149.162 44.099c.829 0 1.5-.672 1.5-1.5s-.671-1.5-1.5-1.5h-42.599v-169.318c0-.397-.158-.779-.439-1.061l-33.504-33.504c-.281-.281-.663-.439-1.061-.439h-115.658c-.829 0-1.5.672-1.5 1.5v202.821h-42.599c-.829 0-1.5.672-1.5 1.5s.671 1.501 1.5 1.501zm161.257-202.2 28.383 28.383h-28.383zm-115.658-2.121h112.658v32.004c0 .828.671 1.5 1.5 1.5h32.004v167.817h-146.162z"/><path d="m89.286 121.014h-16.126c-.829 0-1.5.672-1.5 1.5v16.125c0 .828.671 1.5 1.5 1.5h16.125c.829 0 1.5-.672 1.5-1.5v-16.125c.001-.828-.671-1.5-1.499-1.5zm-1.5 16.125h-13.126v-13.125h13.125v13.125z"/><path d="m182.84 121.014h-79.167c-.829 0-1.5.672-1.5 1.5v16.125c0 .828.671 1.5 1.5 1.5h79.167c.829 0 1.5-.672 1.5-1.5v-16.125c0-.828-.672-1.5-1.5-1.5zm-1.5 16.125h-76.167v-13.125h76.167z"/><path d="m111.112 102.085h33.775c.829 0 1.5-.672 1.5-1.5v-15.944c0-6.407-4.387-11.795-10.311-13.356 3.708-2.569 6.145-6.849 6.145-11.692 0-7.842-6.38-14.222-14.222-14.222s-14.222 6.38-14.222 14.222c0 4.843 2.437 9.123 6.145 11.692-5.924 1.561-10.311 6.948-10.311 13.356v15.944c.001.828.673 1.5 1.501 1.5zm5.666-42.492c0-6.188 5.034-11.222 11.222-11.222 6.187 0 11.222 5.034 11.222 11.222s-5.035 11.221-11.222 11.221c-6.188 0-11.222-5.034-11.222-11.221zm-4.166 25.048c0-5.97 4.857-10.826 10.827-10.826h9.122c5.97 0 10.827 4.856 10.827 10.826v14.444h-30.775v-14.444z"/></g></g></g><g><g fill="#afafaf"><path d="m59.919 132.354h22.703v22.703h-22.703z"/><path d="m105.269 132.354h22.703v22.703h-22.703z"/><path d="m150.675 132.354h22.703v22.703h-22.703z"/></g><path d="m82.622 132.354h22.703v22.703h-22.703z" fill="#cecece"/><path d="m127.972 132.354h22.703v22.703h-22.703z" fill="#cecece"/><path d="m173.378 132.354h22.703v22.703h-22.703z" fill="#cecece"/></g><g><g fill="#cecece"><path d="m59.919 155.057h22.703v22.703h-22.703z"/><path d="m105.269 155.057h22.703v22.703h-22.703z"/><path d="m150.675 155.057h22.703v22.703h-22.703z"/></g><path d="m82.622 155.057h22.703v22.703h-22.703z" fill="#afafaf"/><path d="m127.972 155.057h22.703v22.703h-22.703z" fill="#afafaf"/><path d="m173.378 155.057h22.703v22.703h-22.703z" fill="#afafaf"/></g><g><g fill="#afafaf"><path d="m59.919 177.76h22.703v22.703h-22.703z"/><path d="m105.269 177.76h22.703v22.703h-22.703z"/><path d="m150.675 177.76h22.703v22.703h-22.703z"/></g><path d="m82.622 177.76h22.703v22.703h-22.703z" fill="#cecece"/><path d="m127.972 177.76h22.703v22.703h-22.703z" fill="#cecece"/><path d="m173.378 177.76h22.703v22.703h-22.703z" fill="#cecece"/></g><g><g fill="#cecece"><path d="m59.919 200.463h22.703v22.703h-22.703z"/><path d="m105.269 200.463h22.703v22.703h-22.703z"/><path d="m150.675 200.463h22.703v22.703h-22.703z"/></g><path d="m82.622 200.463h22.703v22.703h-22.703z" fill="#afafaf"/><path d="m127.972 200.463h22.703v22.703h-22.703z" fill="#afafaf"/><path d="m173.378 200.463h22.703v22.703h-22.703z" fill="#afafaf"/></g></g></svg>