<svg height="472pt" viewBox="0 -87 472 472" width="472pt" xmlns="http://www.w3.org/2000/svg"><path d="m462 35.121094v227.820312l-121.878906-66.550781h-1.210938v-94.71875h1.210938zm0 0" fill="#00acea"/><path d="m338.910156 196.390625v51.03125c0 22.089844-17.910156 40-40 40h-248.910156c-22.089844 0-40-17.910156-40-40v-197.421875c0-22.089844 17.910156-40 40-40h248.910156c22.089844 0 40 17.910156 40 40zm0 0" fill="#00efd1"/><path d="m467.101562 26.519531c-3.039062-1.800781-6.796874-1.867187-9.898437-.175781l-108.296875 59.132812v-35.476562c-.03125-27.601562-22.398438-49.96875-50-50h-248.90625c-27.601562.03125-49.96875 22.398438-50 50v197.421875c.03125 27.597656 22.398438 49.964844 50 50h248.910156c27.601563-.035156 49.96875-22.402344 50-50v-34.839844l108.300782 59.132813c3.097656 1.691406 6.855468 1.625 9.890624-.175782 3.035157-1.804687 4.898438-5.070312 4.898438-8.601562v-227.816406c0-3.53125-1.863281-6.800782-4.898438-8.601563zm-138.191406 220.902344c-.019531 16.558594-13.4375 29.980469-30 30h-248.910156c-16.5625-.019531-29.980469-13.441406-30-30v-197.421875c.019531-16.5625 13.4375-29.980469 30-30h248.910156c16.5625.019531 29.980469 13.4375 30 30zm123.089844-1.335937-103.089844-56.289063v-81.53125l103.089844-56.292969zm0 0" fill="#083863"/></svg>