<svg id="Capa_1" enable-background="new 0 0 512 512" height="512" viewBox="0 0 512 512" width="512" xmlns="http://www.w3.org/2000/svg"><g><path d="m210.287 405.667v91.333h45.713l20-48-20-43.333z" fill="#b4d2d7"/><path d="m256 405.667h45.713v91.333h-45.713z" fill="#9bb9c3"/><path d="m0 0v354.19l256 20 30-197.095-30-177.095z" fill="#07485e"/><path d="m512 0h-256v374.19l256-20z" fill="#04303e"/><path d="m0 354.19v61.867h256l20-36.057-20-25.81z" fill="#e1ebf0"/><path d="m256 354.19h256v61.867h-256z" fill="#b4d2d7"/><g><path d="m256 512h-124.766v-30h124.766l10 15z" fill="#e1ebf0"/></g><g><path d="m256 482h124.766v30h-124.766z" fill="#b4d2d7"/></g><g><g><path d="m331.535 178.307-17.986-24.01 37.284-27.931-37.284-27.931 17.986-24.01 58.684 43.962v15.958z" fill="#e1ebf0"/></g><g><g><path d="m180.464 178.307-58.683-43.962v-15.958l58.683-43.962 17.987 24.01-37.284 27.931 37.284 27.931z" fill="#fff5f5"/></g></g><g><path d="m217.807 173.866 27.287 12.467 10.906-23.871 10-52.728-10-19.463z" fill="#fff5f5"/><path d="m266.906 66.399-10.906 23.872v72.191l38.193-83.596z" fill="#e1ebf0"/></g></g><g><path d="m185.5 223.5v30h70.5l10-15-10-15z" fill="#addbfd"/><path d="m256 223.5h70.501v30h-70.501z" fill="#93bdfc"/></g><g><path d="m158.417 283.5v30h97.583l10-15-10-15z" fill="#addbfd"/><path d="m256 283.5h97.583v30h-97.583z" fill="#93bdfc"/></g></g></svg>