<svg id="Capa_1" enable-background="new 0 0 512 512" height="512" viewBox="0 0 512 512" width="512" xmlns="http://www.w3.org/2000/svg"><g><path d="m210.287 405.667v91.333h45.713l20-48-20-43.333z" fill="#b4d2d7"/><path d="m256 405.667h45.713v91.333h-45.713z" fill="#9bb9c3"/><path d="m0 0v354.19l256 20 30-197.095-30-177.095z" fill="#07485e"/><circle cx="150.416" cy="202.98" fill="#f2bb88" r="49.341"/><path d="m222.885 364.19h-144.938v-91.869c0-11.046 8.954-20 20-20h104.938c11.046 0 20 8.954 20 20z" fill="#00b6bd"/><path d="m512 0h-256v374.19l256-20z" fill="#04303e"/><path d="m0 354.19v61.867h256l20-36.057-20-25.81z" fill="#e1ebf0"/><path d="m256 354.19h256v61.867h-256z" fill="#b4d2d7"/><g><path d="m256 512h-124.766v-30h124.766l10 15z" fill="#e1ebf0"/></g><g><path d="m256 482h124.766v30h-124.766z" fill="#b4d2d7"/></g><path d="m289.115 75h151v118h-151z" fill="#5a93c8"/></g></svg>