<svg id="Layer_1" enable-background="new 0 0 512 512" height="512" viewBox="0 0 512 512" width="512" xmlns="http://www.w3.org/2000/svg"><g><g><path d="m497 241h-29.68c-7.37-104.88-91.44-188.94-196.32-196.32v-29.68c0-8.28-6.72-15-15-15s-15 6.72-15 15v29.68c-104.88 7.38-188.95 91.44-196.32 196.32h-29.68c-8.28 0-15 6.72-15 15 0 8.29 6.72 15 15 15h29.68c7.37 104.88 91.44 188.95 196.32 196.32v29.68c0 8.29 6.72 15 15 15s15-6.71 15-15v-29.68c104.88-7.37 188.95-91.44 196.32-196.32h29.68c8.28 0 15-6.71 15-15 0-8.28-6.72-15-15-15zm-241 196.84c-100.27 0-181.84-81.57-181.84-181.84s81.57-181.84 181.84-181.84 181.84 81.57 181.84 181.84-81.57 181.84-181.84 181.84z" fill="#454554"/></g><path d="m355.12 193.91-99.12 150.65-99.09-150.69c1.08-1.72 2.51-3.23 4.22-4.4l86.71-59.4c2.46-1.69 5.3-2.57 8.16-2.62 3.08-.07 6.18.82 8.83 2.65l86.04 59.37c1.72 1.18 3.16 2.7 4.25 4.44z" fill="#fff16b"/><path d="m355.12 193.91-99.12 150.65v-217.11c3.08-.07 6.18.82 8.83 2.65l86.04 59.37c1.72 1.18 3.16 2.7 4.25 4.44z" fill="#ffd845"/><path d="m256 256 20 61.556-20 67.004c-2.97 0-5.93-.89-8.48-2.63l-86.37-59.17c-4.08-2.79-6.52-7.42-6.52-12.37v-108.56c0-2.87.82-5.62 2.28-7.96z" fill="#ffd845"/><path d="m357.37 201.83v108.56c0 4.95-2.44 9.58-6.52 12.37l-86.37 59.17c-.01.01-.01.01-.01.01-.47.32-.96.62-1.48.89-2.19 1.16-4.59 1.73-6.99 1.73v-128.56l99.08-62.13.04.04c1.44 2.33 2.25 5.07 2.25 7.92z" fill="#ffb454"/><path d="m512 256c0 8.29-6.72 15-15 15h-29.68c-7.37 104.88-91.44 188.95-196.32 196.32v29.68c0 8.29-6.72 15-15 15v-74.16c100.27 0 181.84-81.57 181.84-181.84s-81.57-181.84-181.84-181.84v-74.16c8.28 0 15 6.72 15 15v29.68c104.88 7.38 188.95 91.44 196.32 196.32h29.68c8.28 0 15 6.72 15 15z" fill="#2e2e2e"/></g></svg>