<svg id="Capa_1" enable-background="new 0 0 510.742 510.742" height="512" viewBox="0 0 510.742 510.742" width="512" xmlns="http://www.w3.org/2000/svg"><g><path d="m361.101 301.024v189.453c0 7.042 5.708 12.751 12.75 12.751h49.499c7.042 0 12.75-5.709 12.75-12.751v-189.453z" fill="#6cf5c2"/><g><path d="m142.878 37.863v-17.597c0-7.042-5.709-12.751-12.751-12.751h-49.498c-7.042 0-12.751 5.709-12.751 12.751v17.597 360.723c0 20.711 16.789 37.5 37.5 37.5h385.114c7.042 0 12.751-5.709 12.751-12.751v-49.499c0-7.042-5.709-12.751-12.751-12.751h-347.614z" fill="#c2fae3"/></g><path d="m398.601 67.863h-378.32c-7.042 0-12.75 5.709-12.75 12.75v49.499c0 7.042 5.708 12.751 12.75 12.751h17.597 135 188.223v158.161l11.803 17.889h57.065l6.132-17.889v-195.661c0-20.711-16.789-37.5-37.5-37.5z" fill="#6cf5c2"/><g><path d="m67.878 45.363c4.143 0 7.5-3.358 7.5-7.5v-17.597c0-2.895 2.355-5.25 5.251-5.25h49.498c2.896 0 5.251 2.355 5.251 5.25v17.597c0 4.142 3.357 7.5 7.5 7.5s7.5-3.358 7.5-7.5v-17.597c0-11.166-9.085-20.25-20.251-20.25h-49.498c-11.166 0-20.251 9.084-20.251 20.25v17.597c0 4.142 3.358 7.5 7.5 7.5z"/><path d="m490.492 353.586h-326.743l6.544-6.544c2.929-2.929 2.929-7.678 0-10.606s-7.677-2.93-10.607 0l-9.308 9.307v-172.88c0-4.142-3.357-7.5-7.5-7.5s-7.5 3.358-7.5 7.5v187.88l-10.646 10.645c-2.929 2.929-2.929 7.678 0 10.606 1.465 1.465 3.384 2.197 5.304 2.197 1.919 0 3.839-.732 5.304-2.197l13.408-13.408h341.744c2.895 0 5.25 2.355 5.25 5.25v49.499c0 2.895-2.355 5.25-5.25 5.25h-385.114c-4.83 0-9.393-1.154-13.438-3.19l8.448-8.448c2.929-2.929 2.929-7.678 0-10.606-2.93-2.929-7.678-2.929-10.607 0l-9.162 9.161c-3.303-4.82-5.241-10.645-5.241-16.916v-144.86c0-4.142-3.357-7.5-7.5-7.5s-7.5 3.358-7.5 7.5v144.86c0 10.412 3.564 20.001 9.523 27.634l-15.074 15.074c-2.929 2.929-2.929 7.678 0 10.606 1.465 1.465 3.384 2.197 5.304 2.197 1.919 0 3.839-.732 5.304-2.197l15.537-15.537c7.036 4.562 15.414 7.223 24.406 7.223h385.114c11.166 0 20.25-9.084 20.25-20.25v-49.499c0-11.166-9.084-20.251-20.25-20.251z"/><path d="m60.378 172.863v48.9c0 4.142 3.357 7.5 7.5 7.5s7.5-3.358 7.5-7.5v-48.9c0-4.142-3.357-7.5-7.5-7.5s-7.5 3.358-7.5 7.5z"/><path d="m20.281 150.363h325.476l-11.308 11.308c-2.929 2.929-2.929 7.678 0 10.606 1.465 1.464 3.385 2.197 5.304 2.197s3.839-.732 5.304-2.197l8.545-8.545v82.186c0 4.142 3.357 7.5 7.5 7.5s7.5-3.358 7.5-7.5v-97.186l11.408-11.408c2.929-2.929 2.929-7.678 0-10.606-2.93-2.929-7.678-2.929-10.607 0l-8.645 8.645h-340.477c-2.896 0-5.251-2.355-5.251-5.25v-49.5c0-2.895 2.355-5.25 5.251-5.25h378.32c6.271 0 12.096 1.937 16.916 5.24l-11.162 11.162c-2.929 2.929-2.929 7.678 0 10.606 1.465 1.464 3.385 2.197 5.304 2.197s3.839-.732 5.304-2.197l10.448-10.448c2.037 4.046 3.191 8.609 3.191 13.439v225.723c0 4.142 3.357 7.5 7.5 7.5s7.5-3.358 7.5-7.5v-225.722c0-8.992-2.662-17.37-7.224-24.407l13.537-13.537c2.929-2.929 2.929-7.678-.001-10.606-2.928-2.93-7.677-2.929-10.606 0l-13.073 13.073c-7.633-5.959-17.222-9.522-27.633-9.522h-378.321c-11.166 0-20.251 9.084-20.251 20.25v49.499c.001 11.165 9.085 20.25 20.251 20.25z"/><path d="m361.102 270.38c-4.143 0-7.5 3.358-7.5 7.5v53.206c0 4.142 3.357 7.5 7.5 7.5s7.5-3.358 7.5-7.5v-53.206c0-4.142-3.358-7.5-7.5-7.5z"/><path d="m436.102 458.586c-4.143 0-7.5 3.358-7.5 7.5v24.391c0 2.895-2.355 5.25-5.251 5.25h-49.499c-2.895 0-5.25-2.355-5.25-5.25v-24.391c0-4.142-3.357-7.5-7.5-7.5s-7.5 3.358-7.5 7.5v24.391c0 11.166 9.084 20.25 20.25 20.25h49.499c11.166 0 20.251-9.084 20.251-20.25v-24.391c0-4.142-3.358-7.5-7.5-7.5z"/><path d="m19.874 476.246-17.677 17.678c-2.929 2.929-2.929 7.678 0 10.606 1.465 1.464 3.385 2.197 5.304 2.197s3.839-.732 5.304-2.197l17.678-17.678c2.929-2.929 2.929-7.678 0-10.606-2.931-2.928-7.679-2.928-10.609 0z"/><path d="m299.497 196.624-34.953 34.953c-2.929 2.929-2.929 7.678 0 10.606 1.465 1.465 3.384 2.197 5.304 2.197 1.919 0 3.839-.732 5.304-2.197l34.953-34.953c2.929-2.929 2.929-7.678 0-10.606s-7.677-2.93-10.608 0z"/><path d="m229.591 266.529-34.952 34.953c-2.929 2.929-2.929 7.678 0 10.606 1.465 1.464 3.384 2.197 5.304 2.197 1.919 0 3.839-.732 5.304-2.197l34.952-34.953c2.929-2.929 2.929-7.678 0-10.606-2.931-2.929-7.679-2.928-10.608 0z"/><path d="m479.565 34.663c1.919 0 3.839-.732 5.304-2.197l17.678-17.678c2.929-2.929 2.929-7.678 0-10.606-2.93-2.929-7.678-2.929-10.607 0l-17.678 17.678c-2.929 2.929-2.929 7.678 0 10.606 1.464 1.464 3.384 2.197 5.303 2.197z"/></g></g></svg>