<?xml version="1.0" encoding="iso-8859-1"?>
<!-- Generator: Adobe Illustrator 19.0.0, SVG Export Plug-In . SVG Version: 6.00 Build 0)  -->
<svg version="1.1" id="Capa_1" xmlns="http://www.w3.org/2000/svg" xmlns:xlink="http://www.w3.org/1999/xlink" x="0px" y="0px"
	 viewBox="0 0 368 368" style="enable-background:new 0 0 368 368;" xml:space="preserve">
<path style="fill:#CCE4FF;" d="M184,8c97.2,0,176,78.8,176,176s-78.8,176-176,176S8,281.2,8,184S86.8,8,184,8z M294.88,248
	c10.88-18.8,17.12-40.64,17.12-64c0-70.72-57.28-128-128-128S56,113.28,56,184c0,23.36,6.24,45.2,17.12,64
	c22.08,38.24,63.52,64,110.88,64S272.8,286.24,294.88,248z"/>
<g>
	<path style="fill:#007AFF;" d="M184,0C82.544,0,0,82.544,0,184s82.544,184,184,184s184-82.544,184-184S285.456,0,184,0z M184,352
		c-92.64,0-168-75.36-168-168S91.36,16,184,16s168,75.36,168,168S276.64,352,184,352z"/>
	<path style="fill:#007AFF;" d="M280.136,87.864c-0.032-0.032-0.08-0.04-0.112-0.072C255.408,63.216,221.448,48,184,48
		s-71.408,15.216-96.024,39.784c-0.032,0.032-0.08,0.04-0.112,0.072s-0.04,0.08-0.072,0.112C63.216,112.592,48,146.552,48,184
		c0,23.92,6.288,47.424,18.184,67.984c0,0.008,0,0.016,0.008,0.016c24.216,41.944,69.36,68,117.808,68s93.592-26.056,117.808-68
		c0-0.008,0-0.016,0.008-0.016C313.712,231.424,320,207.92,320,184c0-37.448-15.216-71.408-39.784-96.024
		C280.176,87.944,280.168,87.896,280.136,87.864z M264,192h39.512c-1.12,16.792-5.528,33.192-13.352,48H77.832
		c-7.824-14.808-12.232-31.208-13.352-48H104c4.416,0,8-3.584,8-8s-3.584-8-8-8H64.408c1.8-27.064,12.552-51.656,29.392-70.888
		l27.984,27.984c1.56,1.56,3.608,2.344,5.656,2.344s4.096-0.784,5.656-2.344c3.128-3.128,3.128-8.184,0-11.312L105.112,93.8
		C124.344,76.96,148.936,66.2,176,64.408V104c0,4.416,3.584,8,8,8s8-3.584,8-8V64.408c27.064,1.8,51.656,12.552,70.888,29.392
		l-68.6,68.6c-3.168-1.52-6.64-2.4-10.288-2.4c-13.232,0-24,10.768-24,24s10.768,24,24,24s24-10.768,24-24
		c0-3.664-0.888-7.144-2.392-10.296l68.592-68.592c16.84,19.232,27.6,43.824,29.392,70.888H264c-4.416,0-8,3.584-8,8
		C256,188.416,259.584,192,264,192z M178.088,189.272c-0.592-0.664-1.12-1.376-1.464-2.208
		C176.952,187.864,177.48,188.592,178.088,189.272z M176.616,180.936c0.344-0.832,0.88-1.544,1.464-2.208
		C177.48,179.408,176.952,180.136,176.616,180.936z M180.936,191.384c-0.832-0.344-1.544-0.88-2.208-1.464
		C179.408,190.52,180.136,191.048,180.936,191.384z M189.272,189.912c-0.664,0.592-1.376,1.12-2.208,1.464
		C187.864,191.048,188.592,190.52,189.272,189.912z M184,304c-37.904,0-73.488-18.104-95.968-48h191.936
		C257.488,285.896,221.904,304,184,304z"/>
</g>
<g>
</g>
<g>
</g>
<g>
</g>
<g>
</g>
<g>
</g>
<g>
</g>
<g>
</g>
<g>
</g>
<g>
</g>
<g>
</g>
<g>
</g>
<g>
</g>
<g>
</g>
<g>
</g>
<g>
</g>
</svg>
