<svg height="512" viewBox="0 0 56 56" width="512" xmlns="http://www.w3.org/2000/svg"><g id="Page-1" fill="none" fill-rule="evenodd"><g id="062---Photo" fill="rgb(0,0,0)" fill-rule="nonzero"><path id="Shape" d="m46.717 43.4c-1.136-.59-2.275-1.189-3.4-1.8-1.0398719-.618934-2.1629042-1.0859942-3.335-1.387.0161953 1.2777011-.141244 2.5516811-.468 3.787h8.448c-.2-.1-.4-.2-.586-.281-.237-.11-.462-.214-.659-.319z"/><path id="Rectangle-path" d="m5 50h7v2h-7z"/><path id="Shape" d="m19.057 39.128c-.3366441.1826762-.6828037.3472439-1.037.493-.1171155 1.5057792.1635953 3.0158929.814 4.379h18.566c.4606746-1.4129072.6543063-2.8992251.571-4.383-.3534513-.1459691-.698934-.3105323-1.035-.493-.336-.18-.648-.368-.936-.553v2.429c0 .5522847-.4477153 1-1 1s-1-.4477153-1-1v-3.987c-1.027 1.551-2.034 2.987-4.44 2.987h-3.12c-2.406 0-3.413-1.436-4.44-2.987v3.987c0 .5522847-.4477153 1-1 1s-1-.4477153-1-1v-2.43c-.29.187-.6.377-.943.558z"/><path id="Shape" d="m55 0h-54c-.55228475 0-1 .44771525-1 1v22h11c.5522847 0 1 .4477153 1 1s-.4477153 1-1 1h-11v30c0 .5522847.44771525 1 1 1h54c.5522847 0 1-.4477153 1-1v-9h-53c-.55228475 0-1-.4477153-1-1s.44771525-1 1-1h2.189c.0464771-.1185835.10232014-.2332791.167-.343.6213451-.8109541 1.46691804-1.4218388 2.432-1.757.205-.093.4-.182.568-.271 1.129-.585 2.255-1.178 3.365-1.785 1.3355634-.8063487 2.7978329-1.3811136 4.325-1.7.7232562-.1484154 1.4180619-.4117529 2.058-.78.6663683-.3605176 1.3006801-.7773702 1.896-1.246v-1.726c-.157-.165-.307-.33-.483-.5-1.9826986-1.7013791-3.0041336-4.2674867-2.733-6.866-1.8301333-.9194949-3.1610838-2.599925-3.637-4.592-.3-2.115-.331-4.709 1.161-5.286.5531908-.2070881 1.1640958-.1981619 1.711.025-.034-1.215-.023-2.675.062-4.475.342-7.313 7.408-9.545 11.1-9.7h1.6c3.731.158 10.8 2.39 11.139 9.7.085 1.8.1 3.26.062 4.475.5481707-.2223482 1.1598187-.2309127 1.714-.024 1.489.576 1.455 3.17 1.164 5.244-.4660868 2.0086898-1.8009228 3.7062729-3.643 4.633.2736106 2.6013861-.7484617 5.1711465-2.734 6.874-.176.165-.326.33-.483.5v1.726c.5926746.4689657 1.224301.8864815 1.888 1.248.6439118.3707341 1.3431291.6357682 2.071.785 1.5287167.3189573 2.992619.8936996 4.33 1.7 1.1.6 2.226 1.2 3.352 1.779.172.09.366.179.571.272.9658906.3351649 1.8119575.9468507 2.433 1.759.0643475.1087059.1198593.2224049.166.34h5.189v-19.009h-11c-.5522847 0-1-.4477153-1-1s.4477153-1 1-1h11v-22c0-.55228475-.4477153-1-1-1zm-28 48h1c.5522847 0 1 .4477153 1 1s-.4477153 1-1 1h-1c-.5522847 0-1-.4477153-1-1s.4477153-1 1-1zm-10 0h6c.5522847 0 1 .4477153 1 1s-.4477153 1-1 1h-6c-.5522847 0-1-.4477153-1-1s.4477153-1 1-1zm0 4h4c.5522847 0 1 .4477153 1 1s-.4477153 1-1 1h-4c-.5522847 0-1-.4477153-1-1s.4477153-1 1-1zm-14-3c0-.5522847.44771525-1 1-1h9c.5522847 0 1 .4477153 1 1v4c0 .5522847-.4477153 1-1 1h-9c-.55228475 0-1-.4477153-1-1z"/><path id="Shape" d="m12.691 41.594c-1.133.62-2.272 1.219-3.411 1.81-.194.1-.419.2-.656.315-.184.084-.386.18-.586.281h8.619c-.4461571-1.2111893-.6687652-2.4933035-.657-3.784-1.162566.300687-2.2766458.7646344-3.309 1.378z"/><path id="Shape" d="m20.883 32.437c1.0389222 1.0041015 1.9486047 2.1338141 2.708 3.363 1.037 1.563 1.509 2.2 2.849 2.2h3.12c1.337 0 1.812-.637 2.849-2.2.7598087-1.2276568 1.6698392-2.3557049 2.709-3.358 2.254-2.108 2.172-3.873 2.068-6.107-.023-.489-.046-.987-.046-1.5.0130458-.9596724.121242-1.915685.323-2.854.5593617-3.0267918.7133807-6.1145687.458-9.182-.341-7.31-8.821-7.783-9.186-7.799h-1.515c-.316.016-8.8.489-9.141 7.8-.2553807 3.0674313-.1013617 6.1552082.458 9.182.201758.938315.3099542 1.8943276.323 2.854 0 .51-.023 1.008-.046 1.5-.104 2.228-.186 3.993 2.069 6.101z"/><path id="Shape" d="m16.06 19.569c-.2379249-.2807637-.5579615-.479781-.915-.569-.1954649 1.0301037-.203595 2.0870112-.024 3.12.2853727 1.0241581.8934791 1.9289531 1.734 2.58-.0244937-.7919349-.1198748-1.5800842-.285-2.355-.139-.755-.3-1.633-.416-2.852z"/><path id="Shape" d="m40.885 22.08c.174522-1.0201461.1646999-2.0633209-.029-3.08-.357358.0879797-.6778833.2863835-.916.567l-.094-.08c-.115 1.219-.277 2.1-.416 2.852-.1650649.7742506-.260446 1.5617304-.285 2.353.8497043-.6572652 1.4608363-1.5746656 1.74-2.612z"/></g></g></svg>