<svg height="512" viewBox="0 0 512 512" width="512" xmlns="http://www.w3.org/2000/svg"><g><g fill="#57a4ff"><path d="m199.85 120.85h32v112h-112v-32h57.38l-111.23-111.23 22.62-22.62 111.23 111.23z"/><path d="m119.85 280h112v112h-32v-57.38l-111.23 111.23-22.62-22.62 111.23-111.23h-57.38z"/><path d="m334.62 311 111.23 111.23-22.62 22.62-111.23-111.23v57.38h-32v-112h112v32z"/><path d="m392 231.85h-112v-112h32v57.38l111.23-111.23 22.62 22.62-111.23 111.23h57.38z"/><path d="m231.85 120.85v112h-112v-32h57.38l-111.23-111.23 22.62-22.62 111.23 111.23v-57.38z"/><path d="m334.62 199.85h57.38v32h-112v-112h32v57.38l111.23-111.23 22.62 22.62z"/><path d="m445.85 422.23-22.62 22.62-111.23-111.23v57.38h-32v-112h112v32h-57.38z"/><path d="m231.85 280v112h-32v-57.38l-111.23 111.23-22.62-22.62 111.23-111.23h-57.38v-32z"/></g><g fill="#004fac"><path d="m476 8h-440a28.032 28.032 0 0 0 -28 28v440a28.032 28.032 0 0 0 28 28h440a28.032 28.032 0 0 0 28-28v-440a28.032 28.032 0 0 0 -28-28zm12 468a12.013 12.013 0 0 1 -12 12h-440a12.013 12.013 0 0 1 -12-12v-440a12.013 12.013 0 0 1 12-12h440a12.013 12.013 0 0 1 12 12z"/><path d="m231.85 112.85h-32a8 8 0 0 0 -8 8v38.067l-97.573-97.574a8 8 0 0 0 -11.314 0l-22.62 22.62a8 8 0 0 0 0 11.314l97.573 97.573h-38.066a8 8 0 0 0 -8 8v32a8 8 0 0 0 8 8h112a8 8 0 0 0 8-8v-112a8 8 0 0 0 -8-8zm-8 112h-96v-16h49.38a8 8 0 0 0 5.657-13.658l-105.574-105.572 11.307-11.307 105.573 105.575a8 8 0 0 0 13.657-5.658v-49.38h16z"/><path d="m280 239.85h112a8 8 0 0 0 8-8v-32a8 8 0 0 0 -8-8h-38.066l97.573-97.573a8 8 0 0 0 0-11.314l-22.62-22.62a8 8 0 0 0 -11.314 0l-97.573 97.574v-38.067a8 8 0 0 0 -8-8h-32a8 8 0 0 0 -8 8v112a8 8 0 0 0 8 8zm8-112h16v49.38a8 8 0 0 0 13.657 5.658l105.573-105.575 11.307 11.307-105.574 105.572a8 8 0 0 0 5.657 13.658h49.38v16h-96z"/><path d="m353.934 319h38.066a8 8 0 0 0 8-8v-32a8 8 0 0 0 -8-8h-112a8 8 0 0 0 -8 8v112a8 8 0 0 0 8 8h32a8 8 0 0 0 8-8v-38.066l97.573 97.574a8 8 0 0 0 11.314 0l22.62-22.62a8 8 0 0 0 0-11.315zm69.3 114.537-105.577-105.574a8 8 0 0 0 -13.657 5.657v49.38h-16v-96h96v16h-49.38a8 8 0 0 0 -5.657 13.657l105.574 105.573z"/><path d="m231.85 272h-112a8 8 0 0 0 -8 8v32a8 8 0 0 0 8 8h38.067l-97.574 97.573a8 8 0 0 0 0 11.315l22.62 22.619a8 8 0 0 0 11.314 0l97.573-97.573v38.066a8 8 0 0 0 8 8h32a8 8 0 0 0 8-8v-112a8 8 0 0 0 -8-8zm-8 112h-16v-49.38a8 8 0 0 0 -13.657-5.657l-105.573 105.573-11.306-11.306 105.573-105.573a8 8 0 0 0 -5.657-13.657h-49.38v-16h96z"/></g></g></svg>