<svg enable-background="new 0 0 24 24" height="512" viewBox="0 0 24 24" width="512" xmlns="http://www.w3.org/2000/svg"><g id="color_1_"><path d="m12 13c2.757 0 5-2.243 5-5s-2.243-5-5-5-5 2.243-5 5 2.243 5 5 5z" fill="#607d8b"/><path d="m16.5 15h-9c-2.619 0-4.75 2.131-4.75 4.75v3.5c0 .414.336.75.75.75h17c.414 0 .75-.336.75-.75v-3.5c0-2.619-2.131-4.75-4.75-4.75z" fill="#607d8b"/><path d="m12 3c-2.757 0-5 2.243-5 5s2.243 5 5 5z" fill="#546d79"/><path d="m12 15h-4.5c-2.619 0-4.75 2.131-4.75 4.75v3.5c0 .414.336.75.75.75h8.5z" fill="#546d79"/><path d="m3 5.75c-.552 0-1-.447-1-1v-1.75c0-1.654 1.346-3 3-3h1.5c.552 0 1 .447 1 1s-.448 1-1 1h-1.5c-.551 0-1 .448-1 1v1.75c0 .553-.448 1-1 1z" fill="#00bcd4"/><path d="m6.5 14h-1.5c-1.654 0-3-1.346-3-3v-1.75c0-.553.448-1 1-1s1 .447 1 1v1.75c0 .552.449 1 1 1h1.5c.552 0 1 .447 1 1s-.448 1-1 1z" fill="#00bcd4"/><path d="m4.75.01c-1.538.128-2.75 1.42-2.75 2.99v1.75c0 .553.448 1 1 1s1-.447 1-1v-1.75c0-.465.319-.857.75-.968z" fill="#00a4b9"/><path d="m3 8.25c-.552 0-1 .447-1 1v1.75c0 1.57 1.212 2.862 2.75 2.99v-2.021c-.431-.112-.75-.504-.75-.969v-1.75c0-.553-.448-1-1-1z" fill="#00a4b9"/><path d="m21 5.75c-.552 0-1-.447-1-1v-1.75c0-.552-.449-1-1-1h-1.5c-.552 0-1-.447-1-1s.448-1 1-1h1.5c1.654 0 3 1.346 3 3v1.75c0 .553-.448 1-1 1z" fill="#00bcd4"/><path d="m19 14h-1.5c-.552 0-1-.447-1-1s.448-1 1-1h1.5c.551 0 1-.448 1-1v-1.75c0-.553.448-1 1-1s1 .447 1 1v1.75c0 1.654-1.346 3-3 3z" fill="#00bcd4"/><g fill="#00a4b9"><path d="m19 0h-1.5c-.552 0-1 .447-1 1s.448 1 1 1h1.5c.086 0 .17.011.25.032v-2.022c-.082-.007-.166-.01-.25-.01z"/><path d="m19.25 11.968c-.08.021-.164.032-.25.032h-1.5c-.552 0-1 .447-1 1s.448 1 1 1h1.5c.084 0 .168-.003.25-.01z"/></g></g></svg>