<svg id="portrait" enable-background="new 0 0 300 300" height="512" viewBox="0 0 300 300" width="512" xmlns="http://www.w3.org/2000/svg"><g><circle cx="122" cy="164" fill="#d2ddff" r="86"/><path d="m250 230c-7.719 0-14-6.281-14-14s6.281-14 14-14 14 6.281 14 14-6.281 14-14 14zm0-20c-3.309 0-6 2.691-6 6s2.691 6 6 6 6-2.691 6-6-2.691-6-6-6z" fill="#4c241d"/><g><path d="m194.224 198.829-20.047-9.112h-60.354l-20.047 9.112c-13.242 6.019-21.776 19.449-21.776 34.269v32.902h144v-32.902c0-14.82-8.534-28.25-21.776-34.269z" fill="#a9ba5a"/><path d="m216 270h-144c-2.209 0-4-1.791-4-4v-32.902c0-16.369 9.467-31.25 24.119-37.91l20.049-9.111c.52-.236 1.084-.359 1.654-.359h60.355c.57 0 1.135.123 1.654.359l20.047 9.111h.002c14.652 6.66 24.119 21.541 24.119 37.91v32.902c.001 2.209-1.79 4-3.999 4zm-140-8h136v-28.902c0-13.24-7.627-25.262-19.432-30.629h.002l-19.26-8.752h-58.621l-19.26 8.752c-11.802 5.367-19.429 17.388-19.429 30.629z" fill="#4c241d"/></g><circle cx="46" cy="208" fill="#4c241d" r="4.529"/><g><path d="m128 170s.091 12.808.123 13.217l-14.3 6.5 30.177 48.283 30.177-48.283-14.3-6.5c.032-.409.123-13.217.123-13.217" fill="#e7d1c4"/><path d="m144 242c-1.379 0-2.66-.711-3.393-1.881l-30.178-48.283c-.609-.977-.77-2.17-.438-3.273.334-1.104 1.125-2.01 2.176-2.486l11.92-5.418c-.021-1.914-.049-5.145-.088-10.629-.016-2.209 1.762-4.014 3.971-4.029h.029c2.197 0 3.984 1.771 4 3.971 0 .002.086 12.115.119 13.059.057 1.617-.867 3.158-2.342 3.828l-10.143 4.611 24.367 38.983 24.365-38.984-10.143-4.611c-1.529-.693-2.463-2.271-2.334-3.945.025-.826.111-12.939.111-12.941.016-2.209 1.955-3.863 4.029-3.971 2.209.016 3.986 1.82 3.971 4.029-.039 5.484-.066 8.715-.088 10.629l11.92 5.418c1.051.477 1.842 1.383 2.176 2.486.332 1.104.172 2.297-.438 3.273l-30.178 48.283c-.731 1.17-2.012 1.881-3.391 1.881z" fill="#4c241d"/></g><path d="m240 194h-192c-2.209 0-4-1.791-4-4v-156c0-2.209 1.791-4 4-4h192c2.209 0 4 1.791 4 4v156c0 2.209-1.791 4-4 4zm-188-8h184v-148h-184z" fill="#4c241d"/><g><path d="m196 116c-.294 0-.336-2.941-.288-6.301.083-5.821-3.813-10.999-9.466-12.394-27.643-6.821-57.325-5.547-84.267 2.727-3.531 1.084-5.848 4.473-5.744 8.166.106 3.746.134 7.802-.235 7.802-5.644 0-10.196 4.676-9.993 10.365.114 3.199 2.081 6.09 4.734 7.88 3.217 2.171 5.98 2.017 8.431 1.192 3.968 19.359 18.022 35.548 37.427 41.794 5.563 1.791 11.581 1.62 17.141-.182l1.775-.575c19.093-6.188 33.023-22.039 37.173-41.079 2.441.861 5.222 1.012 8.371-.95 2.549-1.588 4.495-4.194 4.862-7.175.751-6.09-3.98-11.27-9.921-11.27z" fill="#e7d1c4"/><path d="m144.752 182.502c-3.193 0-6.348-.486-9.377-1.461-19.201-6.182-33.934-21.713-39.223-41.039-2.623.1-5.174-.768-7.648-2.439-3.914-2.643-6.342-6.773-6.496-11.053-.135-3.842 1.256-7.475 3.918-10.232 1.783-1.846 3.975-3.137 6.379-3.789 0-.979-.016-2.326-.066-4.178-.156-5.529 3.369-10.506 8.568-12.102 28.064-8.619 58.748-9.611 86.398-2.785 7.473 1.842 12.617 8.559 12.508 16.332-.018 1.139-.02 2.037-.016 2.742 2.602.713 4.971 2.17 6.793 4.23 2.656 3.002 3.895 7.021 3.402 11.029-.494 4-3.004 7.77-6.717 10.082-2.418 1.506-4.916 2.25-7.523 2.152-5.441 18.932-20.053 34.176-38.902 40.287l-1.779.576c-3.385 1.097-6.825 1.648-10.219 1.648zm-45.58-51.064c.693 0 1.381.18 1.994.533.994.57 1.693 1.541 1.924 2.664 3.738 18.232 17.049 33.096 34.736 38.791 4.568 1.469 9.785 1.402 14.68-.182l1.779-.576c17.379-5.633 30.598-20.242 34.496-38.125.244-1.121.959-2.084 1.961-2.643 1.002-.561 2.197-.66 3.277-.277 1.816.641 3.242.475 4.928-.574 1.68-1.047 2.805-2.643 3.004-4.268.217-1.76-.299-3.447-1.453-4.754-1.141-1.289-2.779-2.027-4.498-2.027-1.07 0-2.137-.449-2.889-1.211-1.311-1.332-1.494-2.527-1.398-9.148.057-4.027-2.584-7.504-6.424-8.451-26.27-6.48-55.432-5.531-82.135 2.668-1.773.545-2.975 2.283-2.92 4.23.229 8.281-.027 9.348-1.32 10.678-.754.775-1.834 1.234-2.914 1.234-1.643 0-3.176.65-4.318 1.834-1.141 1.182-1.736 2.74-1.678 4.391.061 1.703 1.201 3.508 2.975 4.707 1.951 1.312 3.377 1.236 4.918.715.415-.141.845-.209 1.275-.209zm100.617-16.479h.041z" fill="#4c241d"/></g><circle cx="166" cy="132" fill="#4c241d" r="4"/><circle cx="126" cy="132" fill="#4c241d" r="4"/><g><path d="m196 82c0-44-100-52-99.78 7.34.021 5.763.146 12.021.087 16.344 10.93.374 21.141-3.243 27.89-10.021 11.638 22.604 44.081 31.871 71.803 10.216 0-8.389 0-20.267 0-23.879z" fill="#6b4f5b"/><path d="m162.654 122.166c-3.629 0-7.25-.387-10.834-1.174-11.961-2.625-22.156-9.51-28.635-19.184-7.246 5.391-16.824 8.258-27.016 7.873-2.176-.074-3.893-1.875-3.863-4.053.037-2.684.002-6.119-.033-9.717-.021-2.17-.045-4.398-.053-6.557-.08-21.436 11.658-32.76 21.518-38.486 18.574-10.783 47.234-10.48 66.668.709 12.635 7.275 19.594 18.079 19.594 30.423v23.879c0 1.23-.566 2.395-1.537 3.152-11.057 8.637-23.465 13.135-35.809 13.135zm-38.457-30.504c.203 0 .408.016.613.047 1.264.197 2.357.984 2.943 2.121 5.049 9.809 14.447 16.859 25.781 19.348 12.857 2.822 26.443-.477 38.465-9.287v-21.891c0-11.998-8.475-19.396-15.586-23.49-17.146-9.869-42.365-10.184-58.658-.721-8.035 4.666-17.602 13.924-17.535 31.535.008 2.143.029 4.354.051 6.508.021 2.018.041 3.986.047 5.803 8.373-.51 15.895-3.623 21.045-8.795.756-.76 1.78-1.178 2.834-1.178zm71.803 14.217h.039z" fill="#4c241d"/></g><path d="m100 269.186c-2.209 0-4-1.791-4-4v-27.186c0-2.209 1.791-4 4-4s4 1.791 4 4v27.186c0 2.209-1.791 4-4 4z" fill="#4c241d"/><path d="m192 268.373c-2.209 0-4-1.791-4-4v-26.373c0-2.209 1.791-4 4-4s4 1.791 4 4v26.373c0 2.209-1.791 4-4 4z" fill="#4c241d"/><path d="m144 269.547c-2.209 0-4-1.791-4-4v-27.547c0-2.209 1.791-4 4-4s4 1.791 4 4v27.547c0 2.209-1.791 4-4 4z" fill="#4c241d"/><g fill="#f53e28"><path d="m228 66c-2.209 0-4-1.791-4-4v-12h-12c-2.209 0-4-1.791-4-4s1.791-4 4-4h16c2.209 0 4 1.791 4 4v16c0 2.209-1.791 4-4 4z"/><path d="m60 66c-2.209 0-4-1.791-4-4v-16c0-2.209 1.791-4 4-4h16c2.209 0 4 1.791 4 4s-1.791 4-4 4h-12v12c0 2.209-1.791 4-4 4z"/><path d="m228 182h-16c-2.209 0-4-1.791-4-4s1.791-4 4-4h12v-12c0-2.209 1.791-4 4-4s4 1.791 4 4v16c0 2.209-1.791 4-4 4z"/><path d="m76 182h-16c-2.209 0-4-1.791-4-4v-16c0-2.209 1.791-4 4-4s4 1.791 4 4v12h12c2.209 0 4 1.791 4 4s-1.791 4-4 4z"/></g></g></svg>