<?xml version="1.0" encoding="iso-8859-1"?>
<!-- Generator: Adobe Illustrator 19.0.0, SVG Export Plug-In . SVG Version: 6.00 Build 0)  -->
<svg version="1.1" id="Capa_1" xmlns="http://www.w3.org/2000/svg" xmlns:xlink="http://www.w3.org/1999/xlink" x="0px" y="0px"
	 viewBox="0 0 512 512" style="enable-background:new 0 0 512 512;" xml:space="preserve">
<polygon style="fill:#FF4040;" points="443.899,89.099 316.7,216.599 295.401,195.3 422.901,68.101 "/>
<polygon style="fill:#E10000;" points="443.899,89.099 316.7,216.599 306.2,206.1 433.4,78.6 "/>
<polygon style="fill:#FF4040;" points="512,60 512,90 452,90 452,150 422,150 422,90 362,90 362,60 422,60 422,0 452,0 452,60 "/>
<polygon style="fill:#E10000;" points="512,60 512,90 452,90 452,150 422,150 422,90 452,60 "/>
<path style="fill:#53433F;" d="M172.275,499.637c-19.204,0-38.394-7.31-53.027-21.929L34.404,392.85l21.211-21.211l84.844,84.858
	c16.978,16.992,46.641,16.978,63.647-0.015l44.647-44.759l21.211,21.211l-44.647,44.759
	C210.698,492.313,191.494,499.637,172.275,499.637z"/>
<path style="fill:#5A5A5A;" d="M129.976,488.337l-10.801,10.499c-17.399,17.401-45.899,17.701-63.6,0l-21.299-21l-21-21.299
	c-17.701-17.701-17.701-46.201,0-63.602l10.499-10.8l51.301,9l23.101,23.101l22.798,22.8L129.976,488.337z"/>
<path style="fill:#444444;" d="M120.975,437.037l9.001,51.301l-10.801,10.499c-17.399,17.401-45.899,17.701-63.6,0l-21.299-21
	l63.9-63.6L120.975,437.037z"/>
<polygon style="fill:#68544F;" points="369.8,248.399 256.099,361.8 204.8,353.099 182,330.3 158.899,307.2 150.2,255.899 
	263.599,142.2 316.7,195.3 "/>
<polygon style="fill:#53433F;" points="316.7,195.3 369.8,248.399 256.099,361.8 204.8,353.099 182,330.3 "/>
<polygon style="fill:#FF4040;" points="284.9,248.399 263.599,269.7 253.1,259.2 242.3,248.399 263.599,227.1 274.401,237.9 "/>
<rect x="261.575" y="238.735" transform="matrix(0.7071 0.7071 -0.7071 0.7071 258.2484 -115.8764)" style="fill:#E10000;" width="14.848" height="30.12"/>
<polygon style="fill:#FF9F00;" points="256.099,361.8 129.976,488.337 23.775,382.136 150.2,255.899 203.301,309 "/>
<polygon style="fill:#FF7816;" points="203.301,309 256.099,361.8 129.976,488.337 76.875,435.237 "/>
<g>
</g>
<g>
</g>
<g>
</g>
<g>
</g>
<g>
</g>
<g>
</g>
<g>
</g>
<g>
</g>
<g>
</g>
<g>
</g>
<g>
</g>
<g>
</g>
<g>
</g>
<g>
</g>
<g>
</g>
</svg>
