<?xml version="1.0"?>
<svg xmlns="http://www.w3.org/2000/svg" id="Layer_1" data-name="Layer 1" viewBox="0 0 128 128" width="512" height="512"><title>MOTOR DC</title><path d="M54.469,34.625H74.63a7.294,7.294,0,0,1,7.294,7.294V52a0,0,0,0,1,0,0H47.175a0,0,0,0,1,0,0V41.919A7.294,7.294,0,0,1,54.469,34.625Z" style="fill:#baddfa"/><path d="M80.425,52H48.675V72.191A4.076,4.076,0,0,0,51.3,76h0a4.076,4.076,0,0,1,2.625,3.809V80.5h21.25v-.691A4.076,4.076,0,0,1,77.8,76h0a4.076,4.076,0,0,0,2.625-3.809Z" style="fill:#fff"/><rect x="61.112" y="86.5" width="6.875" height="6.875" style="fill:#baddfa"/><path d="M74.63,33.525H54.469a8.4,8.4,0,0,0-8.394,8.395V52a1.1,1.1,0,0,0,1.1,1.1h.4V72.191a5.206,5.206,0,0,0,3.333,4.837,2.991,2.991,0,0,1,1.916,2.78V80.5a1.1,1.1,0,0,0,1.1,1.1H63.45v3.8H61.112a1.1,1.1,0,0,0-1.1,1.1v6.875a1.1,1.1,0,0,0,1.1,1.1h6.875a1.1,1.1,0,0,0,1.1-1.1V86.5a1.1,1.1,0,0,0-1.1-1.1H65.65V81.6h9.525a1.1,1.1,0,0,0,1.1-1.1v-.691a2.991,2.991,0,0,1,1.916-2.78,5.206,5.206,0,0,0,3.333-4.837V53.1h.4a1.1,1.1,0,0,0,1.1-1.1V41.92A8.4,8.4,0,0,0,74.63,33.525Zm-7.743,58.75H62.212V87.6h4.675ZM48.275,41.92a6.2,6.2,0,0,1,6.194-6.2H74.63a6.2,6.2,0,0,1,6.194,6.2V50.9H48.275Zm31.05,30.272a2.991,2.991,0,0,1-1.916,2.78A5.21,5.21,0,0,0,74.091,79.4H55.008a5.21,5.21,0,0,0-3.317-4.429,2.991,2.991,0,0,1-1.916-2.78V53.1h29.55Z" style="fill:#3949aa"/><path d="M57.8,71.6a1.1,1.1,0,0,0,1.1-1.1V58.75a1.1,1.1,0,0,0-2.2,0V70.5A1.1,1.1,0,0,0,57.8,71.6Z" style="fill:#3949aa"/><path d="M64.55,71.6a1.1,1.1,0,0,0,1.1-1.1V58.75a1.1,1.1,0,0,0-2.2,0V70.5A1.1,1.1,0,0,0,64.55,71.6Z" style="fill:#3949aa"/><path d="M71.3,71.6a1.1,1.1,0,0,0,1.1-1.1V58.75a1.1,1.1,0,0,0-2.2,0V70.5A1.1,1.1,0,0,0,71.3,71.6Z" style="fill:#3949aa"/></svg>
