<svg id="Capa_1" enable-background="new 0 0 510 510" height="512" viewBox="0 0 510 510" width="512" xmlns="http://www.w3.org/2000/svg"><g id="XMLID_270_"><path id="XMLID_397_" d="m240 0v75.62l7.5 6.297 7.5-6.917 3.673-36.106-3.673-38.894c-5.246 0-9.754 0-15 0z" fill="#e63950"/><path id="XMLID_361_" d="m270 0c-5.246 0-9.754 0-15 0v75l7.5 6.916 7.5-6.297c0-18.989 0-63.436 0-75.619z" fill="#cd0000"/><path id="XMLID_358_" d="m240 434.378v75.622h15l5.833-35.333-5.833-39.667-7.5-7.667z" fill="#e63950"/><path id="XMLID_355_" d="m270 434.378-7.5-7.045-7.5 7.667v75h15c0-12.009 0-56.632 0-75.622z" fill="#cd0000"/><path id="XMLID_352_" d="m434.381 270h75.619c0-10.492 0-19.508 0-30-12.009 0-56.629 0-75.619 0l-14.381 15z" fill="#cd0000"/><path id="XMLID_349_" d="m75.622 270c-18.99 0-63.439 0-75.622 0 0-10.492 0-19.508 0-30h75.621l14.379 15z" fill="#e63950"/><path id="XMLID_345_" d="m75 255c0 99.25 80.745 180 180 180l15-180-15-180c-99.25 0-180 80.745-180 180z" fill="#ff637b"/><path id="XMLID_342_" d="m435 255c0-99.249-80.745-180-180-180v360c99.249 0 180-80.745 180-180z" fill="#e63950"/><path id="XMLID_327_" d="m105 255c0 82.707 67.287 150 150 150l15-150-15-150c-82.708 0-150 67.287-150 150z" fill="#e6f2ff"/><path id="XMLID_323_" d="m405 255c0-82.708-67.287-150-150-150v300c82.707 0 150-67.288 150-150z" fill="#cdf"/><path id="XMLID_320_" d="m480 30v90h30c0-14.518 0-105.386 0-120-14.518 0-105.386 0-120 0v30z" fill="#cdf"/><path id="XMLID_315_" d="m30 120c-10.492 0-19.508 0-30 0 0-14.518 0-105.386 0-120h120v30c-10.889 0-79.04 0-90 0z" fill="#e6f2ff"/><path id="XMLID_312_" d="m480 480c-10.889 0-79.04 0-90 0v30h120c0-14.518 0-105.386 0-120-10.492 0-19.508 0-30 0z" fill="#cdf"/><path id="XMLID_309_" d="m120 510c-14.518 0-105.386 0-120 0 0-14.518 0-105.386 0-120h30v90h90z" fill="#e6f2ff"/><path id="XMLID_300_" d="m213.677 234.824c-14.505 7.206-24.746 16.72-31.954 26.202-14.379 18.914-16.691 37.698-16.723 37.766v31.208h90l15-37.501-15-37.501z" fill="#6cf"/><path id="XMLID_296_" d="m345 298.792c-.103-.224-2.034-18.927-16.555-37.871-7.188-9.377-17.46-18.813-32.122-26.096l-41.323 20.173v37.501 37.501h90c0-10.915 0-20.293 0-31.208z" fill="#4596e6"/><path id="XMLID_292_" d="m202.5 202.5c0 28.948 23.55 52.5 52.5 52.5l15-52.5-15-52.5c-28.948 0-52.5 23.55-52.5 52.5z" fill="#fdc"/><path id="XMLID_287_" d="m307.5 202.5c0-28.947-23.55-52.5-52.5-52.5v105c28.947 0 52.5-23.55 52.5-52.5z" fill="#ffbfb3"/></g></svg>