<?xml version="1.0" encoding="iso-8859-1"?>
<!-- Generator: Adobe Illustrator 19.0.0, SVG Export Plug-In . SVG Version: 6.00 Build 0)  -->
<svg version="1.1" id="Capa_1" xmlns="http://www.w3.org/2000/svg" xmlns:xlink="http://www.w3.org/1999/xlink" x="0px" y="0px"
	 viewBox="0 0 512 512" style="enable-background:new 0 0 512 512;" xml:space="preserve">
<path style="fill:#EAEAEA;" d="M512,95.39v321.221C512,435.1,497,450.1,478.5,450.1H33.488C14.989,450.1,0,435.099,0,416.612V95.39
	c0-18.5,14.989-33.488,33.488-33.488h445.013C497,61.901,512,76.891,512,95.39z"/>
<path style="fill:#FCC63D;" d="M512,95.388v52.585H0.002V95.388c0-18.5,14.989-33.488,33.488-33.488H478.5
	C497,61.899,512,76.888,512,95.388z"/>
<circle style="fill:#F9572B;" cx="53.353" cy="104.092" r="17.248"/>
<circle style="fill:#BCBCBC;" cx="111.428" cy="104.092" r="17.248"/>
<circle style="fill:#45B8C4;" cx="169.493" cy="104.092" r="17.248"/>
<path style="fill:#424C59;" d="M68.967,426.338c-4.328,0-7.837-3.509-7.837-7.837V176.084c0-4.328,3.509-7.837,7.837-7.837
	s7.837,3.509,7.837,7.837v242.417C76.803,422.829,73.295,426.338,68.967,426.338z"/>
<circle style="fill:#F9572B;" cx="68.963" cy="256.543" r="22.988"/>
<path style="fill:#424C59;" d="M139.497,426.338c-4.328,0-7.837-3.509-7.837-7.837V176.084c0-4.328,3.509-7.837,7.837-7.837
	s7.837,3.509,7.837,7.837v242.417C147.334,422.829,143.825,426.338,139.497,426.338z"/>
<circle style="fill:#F9572B;" cx="139.494" cy="323.762" r="22.988"/>
<path style="fill:#424C59;" d="M210.028,426.338c-4.328,0-7.837-3.509-7.837-7.837V176.084c0-4.328,3.509-7.837,7.837-7.837
	c4.328,0,7.837,3.509,7.837,7.837v242.417C217.865,422.829,214.356,426.338,210.028,426.338z"/>
<circle style="fill:#F9572B;" cx="210.025" cy="366.258" r="22.988"/>
<path style="fill:#424C59;" d="M467.074,213.178H288.397c-4.328,0-7.837-3.509-7.837-7.837c0-4.328,3.509-7.837,7.837-7.837h178.678
	c4.328,0,7.837,3.509,7.837,7.837C474.911,209.669,471.402,213.178,467.074,213.178z"/>
<path style="fill:#45B8C4;" d="M376.168,223.104h-55.209c-3.886,0-7.037-3.15-7.037-7.037v-21.453c0-3.886,3.15-7.037,7.037-7.037
	h55.209c3.886,0,7.037,3.15,7.037,7.037v21.453C383.205,219.953,380.054,223.104,376.168,223.104z"/>
<path style="fill:#424C59;" d="M467.074,275.872H288.397c-4.328,0-7.837-3.509-7.837-7.837s3.509-7.837,7.837-7.837h178.678
	c4.328,0,7.837,3.509,7.837,7.837S471.402,275.872,467.074,275.872z"/>
<path style="fill:#45B8C4;" d="M438.865,285.798h-55.209c-3.886,0-7.037-3.15-7.037-7.037v-21.453c0-3.886,3.15-7.037,7.037-7.037
	h55.209c3.886,0,7.037,3.15,7.037,7.037v21.453C445.903,282.647,442.752,285.798,438.865,285.798z"/>
<rect x="294.662" y="325.507" style="fill:#FCC63D;" width="178.678" height="87.96"/>
<path style="fill:#F9572B;" d="M341.685,400.215c-2.648,0-5.129-1.34-6.579-3.58l-9.177-14.183h-31.263
	c-4.328,0-7.837-3.509-7.837-7.837s3.509-7.837,7.837-7.837h35.527c2.658,0,5.136,1.348,6.58,3.58l4.041,6.244l14.762-29.525
	c1.371-2.743,4.216-4.436,7.279-4.328c3.064,0.106,5.785,1.988,6.964,4.818l11.635,27.923l14.844-12.085
	c2.958-2.408,7.22-2.337,10.096,0.168l16.081,14.012l11.01-34.604c0.99-3.11,3.801-5.28,7.059-5.45
	c3.268-0.164,6.281,1.697,7.588,4.684l12.574,28.741h12.638c4.328,0,7.837,3.509,7.837,7.837s-3.509,7.837-7.837,7.837h-17.763
	c-3.114,0-5.932-1.843-7.18-4.696l-6.289-14.376l-8.321,26.15c-0.8,2.515-2.813,4.459-5.355,5.17
	c-2.54,0.712-5.272,0.095-7.261-1.637l-20.102-17.515l-17.868,14.548c-1.918,1.562-4.46,2.127-6.859,1.523
	c-2.399-0.603-4.372-2.303-5.323-4.586l-9.087-21.811l-13.241,26.481c-1.258,2.516-3.767,4.165-6.576,4.321
	C341.975,400.211,341.83,400.215,341.685,400.215z"/>
<path style="fill:#239999;" d="M473.344,421.296H294.666c-4.328,0-7.837-3.509-7.837-7.837v-87.956c0-4.328,3.509-7.837,7.837-7.837
	h178.678c4.328,0,7.837,3.509,7.837,7.837v87.956C481.181,417.787,477.672,421.296,473.344,421.296z M302.503,405.622h163.004
	V333.34H302.503V405.622z"/>
<g>
</g>
<g>
</g>
<g>
</g>
<g>
</g>
<g>
</g>
<g>
</g>
<g>
</g>
<g>
</g>
<g>
</g>
<g>
</g>
<g>
</g>
<g>
</g>
<g>
</g>
<g>
</g>
<g>
</g>
</svg>
