<svg id="Layer_1" enable-background="new 0 0 506.1 506.1" height="512" viewBox="0 0 506.1 506.1" width="512" xmlns="http://www.w3.org/2000/svg"><path d="m489.609 0h-473.118c-9.108 0-16.491 7.383-16.491 16.491v473.118c0 9.107 7.383 16.491 16.491 16.491h473.118c9.107 0 16.491-7.383 16.491-16.491v-473.118c0-9.108-7.384-16.491-16.491-16.491z" fill="#aced70"/><path d="m306.827 146.374c-92.334-43.662-223.152-8.999-306.827 22.372v320.863c0 9.107 7.383 16.491 16.491 16.491h473.118c9.107 0 16.491-7.383 16.491-16.491v-346.085c-49.714 23.302-121.26 39.74-199.273 2.85z" fill="#9bd65e"/><path d="m506.1 489.609v-164.022c-27.896-15.857-243.388-119.388-413.146-8.53-35.35 23.084-66.199 37.495-92.954 45.755v126.797c0 9.107 7.383 16.491 16.491 16.491h473.118c9.107 0 16.491-7.384 16.491-16.491z" fill="#91c656"/><path d="m489.609 506.1h-473.118c-9.108 0-16.491-7.384-16.491-16.491v-473.118c0-9.108 7.383-16.491 16.491-16.491h473.119c9.107 0 16.49 7.383 16.49 16.491v473.118c0 9.107-7.383 16.491-16.491 16.491zm-456.628-32.982h440.138v-440.137h-440.138z"/><path d="m85.115 285.621c11.935 11.936 31.988-.515 26.409-16.571h32.196v125.255c-16.066-5.581-28.498 14.484-16.571 26.409l21.258 21.258c6.248 6.248 16.379 6.248 22.627 0l21.258-21.258c11.934-11.933-.512-31.988-16.571-26.409v-125.255h20.655c8.811 45.252 18.704 100 51.558 100 32.698 0 42.556-53.77 51.559-100h50.279c8.923 45.82 18.784 100 51.559 100 8.837 0 16-7.164 16-16 0-8.229-6.213-15.007-14.204-15.9-9.346-9.723-18.108-54.81-20.743-68.1h12.194c-5.582 16.066 14.486 28.496 26.409 16.571l21.258-21.257c6.249-6.249 6.249-16.379 0-22.628l-21.258-21.257c-11.932-11.934-31.988.513-26.409 16.571h-18.388c-8.922-45.82-18.785-100-51.559-100-32.698 0-42.557 53.77-51.559 100h-50.277c-9.301-47.77-18.728-94.998-47.075-99.638v-25.617c16.064 5.58 28.499-14.483 16.571-26.409l-21.258-21.258c-6.248-6.248-16.379-6.248-22.627 0l-21.258 21.258c-11.934 11.933.512 31.988 16.571 26.409v125.255h-32.196c5.582-16.065-14.485-28.497-26.409-16.571l-21.258 21.257c-6.249 6.249-6.249 16.379 0 22.628zm162.818 49.148c-8.644-13.57-15.79-49.799-18.946-65.719h37.894c-3.143 15.845-10.298 52.145-18.948 65.719zm76.698-163.439c8.647 13.569 15.796 49.824 18.948 65.72h-37.896c3.146-15.868 10.298-52.147 18.948-65.72zm-148.911 9.244c6.188 15.611 11.117 39.595 14.464 56.476h-14.464z"/></svg>